<svg xmlns:xlink="http://www.w3.org/1999/xlink" xmlns="http://www.w3.org/2000/svg" viewBox="0 0 43 43"><defs><linearGradient id="a" x1="19.9" y1="0" x2="19.9" y2="40" gradientUnits="userSpaceOnUse"><stop stop-color="#5CC6F6"/><stop offset="1" stop-color="#007AFF"/></linearGradient><linearGradient xlink:href="#a" id="b" gradientUnits="userSpaceOnUse" x1="19.9" y1="0" x2="19.9" y2="40" gradientTransform="translate(1.5 1.5)"/></defs><path fill-rule="evenodd" clip-rule="evenodd" d="M21.4 1.5C5 1.5 1.5 5 1.5 21.5s3.5 20 20 20c16.3 0 19.9-3.5 19.9-20s-3.6-20-20-20z" fill="url('#a')" style="fill:url(#b);stroke:#fff;stroke-width:3;stroke-miterlimit:4;stroke-dasharray:none;stroke-opacity:1"/><path fill-rule="evenodd" clip-rule="evenodd" d="M23.7 11.3c1.2.1 2.4.5 3.5 1.1a6 6 0 0 1 2.8 5.4c0 2.5-1.2 4.3-2.8 5.4-1 .7-2.3 1.2-3.5 1.4v2.2h-3.1v-2.1h-2.2V30h1.5v3h-6.2v-3h1.6V14.3h-1.6v-3h6.9v-2h3v2ZM22 21.6h-3.7v-7.3H22c1.3 0 2.6.3 3.4.8.8.5 1.4 1.2 1.4 2.7 0 1.4-.6 2.3-1.4 2.8a6 6 0 0 1-3.4 1z" fill="url(#a)" style="fill:#fff;fill-opacity:1"/></svg>