<?xml version="1.0" encoding="UTF-8" ?>
<!DOCTYPE svg PUBLIC "-//W3C//DTD SVG 1.1//EN" "http://www.w3.org/Graphics/SVG/1.1/DTD/svg11.dtd">
<svg width="1000pt" height="1000pt" viewBox="0 0 1000 1000" version="1.1" xmlns="http://www.w3.org/2000/svg">
<g id="#0c7ef9ff">
<path fill="#0c7ef9" opacity="1.00" d=" M 480.24 0.00 L 519.83 0.00 C 567.41 1.95 614.75 10.49 659.86 25.79 C 734.88 51.01 803.60 94.57 858.66 151.38 C 908.12 202.27 946.67 263.74 970.62 330.56 C 989.30 382.35 999.10 437.27 1000.00 492.30 L 1000.00 507.76 C 999.16 557.07 991.25 606.28 976.13 653.23 C 952.63 726.43 911.90 794.00 858.22 849.02 C 798.28 910.77 722.15 956.68 639.46 980.58 C 600.50 991.91 560.16 998.27 519.65 1000.00 L 481.23 1000.00 C 424.07 997.82 367.22 986.00 314.14 964.61 C 246.19 937.45 184.42 895.05 134.53 841.53 C 81.80 785.19 42.33 716.49 20.46 642.48 C 7.93 600.38 1.18 556.61 0.00 512.72 L 0.00 487.21 C 1.55 426.87 13.93 366.81 36.81 310.94 C 60.64 252.31 95.93 198.46 139.76 152.85 C 182.45 108.59 233.28 72.13 289.05 46.19 C 348.85 18.23 414.29 2.57 480.24 0.00 M 481.78 259.70 C 481.91 273.76 481.77 287.83 481.90 301.89 C 434.86 301.79 387.81 301.83 340.76 301.84 C 340.50 302.04 339.98 302.43 339.72 302.63 C 339.73 323.92 339.81 345.21 339.70 366.50 C 349.92 366.40 360.13 366.44 370.35 366.45 C 370.37 471.55 370.32 576.66 370.39 681.76 C 360.16 681.70 349.92 681.75 339.68 681.69 C 339.75 701.25 339.79 720.82 339.69 740.38 C 390.59 740.30 441.48 740.31 492.38 740.38 C 492.33 720.82 492.35 701.26 492.39 681.70 C 476.11 681.77 459.83 681.64 443.55 681.80 C 443.51 647.00 443.58 612.21 443.52 577.42 C 456.31 577.41 469.10 577.48 481.89 577.38 C 481.78 593.41 481.96 609.44 481.74 625.47 C 504.23 625.76 526.77 625.71 549.26 625.49 C 549.05 609.47 549.19 593.45 549.14 577.43 C 576.67 574.29 603.04 563.55 625.63 547.63 C 634.88 541.05 644.32 534.40 651.56 525.55 C 664.51 510.73 672.89 492.24 676.99 473.08 C 679.30 459.18 680.56 445.00 679.87 430.92 C 678.84 403.07 670.36 374.53 651.50 353.46 C 641.35 341.51 627.88 332.96 613.97 326.04 C 594.06 316.71 572.89 309.98 551.25 306.15 C 551.25 290.67 551.24 275.19 551.29 259.71 C 528.12 259.74 504.95 259.75 481.78 259.70 Z" />
<path fill="#0c7ef9" opacity="1.00" d=" M 439.40 366.45 C 464.58 365.84 489.77 365.19 514.97 365.71 C 533.28 366.46 552.03 367.67 569.20 374.67 C 582.95 380.42 595.10 390.42 602.77 403.25 C 610.05 417.21 612.44 433.53 610.53 449.09 C 608.47 465.94 599.88 481.98 586.72 492.75 C 572.34 504.92 554.09 511.28 535.94 515.31 C 526.41 517.29 516.64 516.64 506.98 516.92 C 487.64 516.78 468.30 516.92 448.95 516.83 C 446.45 516.69 443.87 517.67 441.46 516.74 C 441.48 466.62 440.46 416.55 439.40 366.45 Z" />
</g>
<g id="#fdfcffff">
<path fill="#fdfcff" opacity="1.00" d=" M 481.78 259.70 C 504.95 259.75 528.12 259.74 551.29 259.71 C 551.24 275.19 551.25 290.67 551.25 306.15 C 572.89 309.98 594.06 316.71 613.97 326.04 C 627.88 332.96 641.35 341.51 651.50 353.46 C 670.36 374.53 678.84 403.07 679.87 430.92 C 680.56 445.00 679.30 459.18 676.99 473.08 C 672.89 492.24 664.51 510.73 651.56 525.55 C 644.32 534.40 634.88 541.05 625.63 547.63 C 603.04 563.55 576.67 574.29 549.14 577.43 C 549.19 593.45 549.05 609.47 549.26 625.49 C 526.77 625.71 504.23 625.76 481.74 625.47 C 481.96 609.44 481.78 593.41 481.89 577.38 C 469.10 577.48 456.31 577.41 443.52 577.42 C 443.58 612.21 443.51 647.00 443.55 681.80 C 459.83 681.64 476.11 681.77 492.39 681.70 C 492.35 701.26 492.33 720.82 492.38 740.38 C 441.48 740.31 390.59 740.30 339.69 740.38 C 339.79 720.82 339.75 701.25 339.68 681.69 C 349.92 681.75 360.16 681.70 370.39 681.76 C 370.32 576.66 370.37 471.55 370.35 366.45 C 360.13 366.44 349.92 366.40 339.70 366.50 C 339.81 345.21 339.73 323.92 339.72 302.63 C 339.98 302.43 340.50 302.04 340.76 301.84 C 387.81 301.83 434.86 301.79 481.90 301.89 C 481.77 287.83 481.91 273.76 481.78 259.70 M 439.40 366.45 C 440.46 416.55 441.48 466.62 441.46 516.74 C 443.87 517.67 446.45 516.69 448.95 516.83 C 468.30 516.92 487.64 516.78 506.98 516.92 C 516.64 516.64 526.41 517.29 535.94 515.31 C 554.09 511.28 572.34 504.92 586.72 492.75 C 599.88 481.98 608.47 465.94 610.53 449.09 C 612.44 433.53 610.05 417.21 602.77 403.25 C 595.10 390.42 582.95 380.42 569.20 374.67 C 552.03 367.67 533.28 366.46 514.97 365.71 C 489.77 365.19 464.58 365.84 439.40 366.45 Z" />
</g>
</svg>
