<svg xmlns="http://www.w3.org/2000/svg" viewBox="0 0 76.5 77.7"><path d="M66.5 46.4a4 4 0 0 1-4.1.3c-1.6-.9-2.4-3-2.4-5.7v-8.5c0-4.1-1.6-7-4.3-7.8-4.6-1.3-8 4.3-9.3 6.4l-8.1 13v-16c-.1-3.6-1.3-5.8-3.6-6.5-1.5-.4-3.8-.2-6 3.1l-18 29A32 32 0 0 1 7 38.9C7 21.3 21 7.1 38.3 7.1s31.3 14.2 31.3 31.7v.2c.1 3.4-1 6.1-3 7.4zm10-7.6v-.1C76.4 17.3 59.3 0 38.3 0S0 17.4 0 38.8s17.2 38.9 38.3 38.9a37.8 37.8 0 0 0 26-10.4 3.6 3.6 0 0 0 .1-5 3.4 3.4 0 0 0-4.8-.2A31 31 0 0 1 15 60l16.3-26.2v12c0 5.9 2.3 7.8 4.1 8.3s4.8.2 7.9-4.7l9-14.6.7-1.2V41c0 5.4 2.2 9.8 6 12a11 11 0 0 0 11.3-.5c4.2-2.8 6.4-7.7 6.2-13.7z"/></svg>