<svg xmlns="http://www.w3.org/2000/svg" viewBox="0 0 24 24">
	<path d="M40 10a30 30 0 1 0 30 30 30 30 0 0 0-30-30Zm1.8 23.2a5.5 5.5 0 1 1-5.5-5.5 5.5 5.5 0 0 1 5.5 5.5Zm19 7.7C59.3 42.9 46 50 40.7 44c0 0 9.5 4.3 20.3-3.2zm-6.4-2.4a1.2 1.2 0 1 1 1.1 1.1 1.2 1.2 0 0 1-1.2-1.1zm-9 28.8c-.4-2.8-.5-11.6 13-23.4 3.4-2.9 7.8-9.8-1.4-13-4.7-1.5-7-2.4-8.9-3.1a3.8 3.8 0 0 0-1.8-2.3 7.8 7.8 0 0 0-5.7-.5c-7-1.4-14.8 1.2-18 6.1-2.8 4.6-1.5 20.2-5.5 24.7a27.8 27.8 0 1 1 28.3 11.5z" transform="matrix(.4 0 0 .4 -4 -4)"/>
	<path d="M36.3 29.4a3.8 3.8 0 1 0 3.8 3.8 3.8 3.8 0 0 0-3.8-3.8Z" transform="matrix(.4 0 0 .4 -4 -4)"/>
</svg>