<?xml version="1.0" encoding="UTF-8" ?>
<!DOCTYPE svg PUBLIC "-//W3C//DTD SVG 1.1//EN" "http://www.w3.org/Graphics/SVG/1.1/DTD/svg11.dtd">
<svg width="256pt" height="256pt" viewBox="0 0 256 256" version="1.1" xmlns="http://www.w3.org/2000/svg">
<g id="#000000ff">
<path fill="#000000" opacity="1.00" d=" M 134.66 45.66 C 145.09 35.01 160.04 28.99 174.93 29.52 C 188.38 29.84 201.60 35.41 211.18 44.86 C 222.47 56.33 228.09 73.03 226.13 88.99 C 224.79 100.92 219.27 112.29 210.87 120.84 C 205.69 126.09 200.43 131.27 195.23 136.51 C 195.37 127.81 193.94 119.11 190.95 110.93 C 196.28 105.96 201.35 100.31 203.44 93.16 C 207.20 81.83 204.44 68.55 196.26 59.82 C 183.90 47.90 162.39 48.01 150.14 60.05 C 137.58 72.87 125.11 85.78 112.58 98.63 C 106.48 104.68 103.09 113.32 103.51 121.91 C 103.80 129.60 107.20 137.00 112.58 142.48 C 116.47 146.60 115.83 153.79 111.50 157.37 C 107.74 160.75 101.38 160.90 97.67 157.36 C 87.85 147.97 82.06 134.53 82.02 120.94 C 81.85 107.77 87.06 94.62 96.23 85.16 C 109.05 72.00 121.83 58.80 134.66 45.66 Z" />
<path fill="#000000" opacity="1.00" d=" M 142.69 100.66 C 145.82 95.78 153.23 94.46 157.76 98.13 C 170.80 109.95 176.46 128.86 172.89 146.00 C 155.55 155.19 143.07 172.54 139.65 191.84 C 133.99 198.09 127.74 203.82 121.86 209.88 C 113.64 218.31 102.73 224.11 91.07 225.84 C 74.27 228.59 56.32 222.80 44.36 210.66 C 34.56 200.44 29.12 186.22 29.51 172.07 C 29.75 158.85 35.07 145.80 44.17 136.18 C 49.61 130.53 55.26 125.08 60.77 119.49 C 60.65 128.54 62.22 137.55 65.07 146.13 C 51.15 155.02 46.99 174.99 54.83 189.22 C 61.31 202.37 78.18 207.74 91.77 203.86 C 97.72 202.22 103.21 198.93 107.42 194.42 C 119.85 181.53 132.44 168.80 144.80 155.86 C 155.16 144.61 154.99 125.60 144.35 114.60 C 140.49 111.14 139.60 104.90 142.69 100.66 Z" />
<path fill="#000000" opacity="1.00" d=" M 186.98 146.01 C 192.33 146.00 197.67 145.99 203.02 146.01 C 203.03 150.01 203.02 154.01 203.03 158.02 C 212.91 160.35 222.17 168.26 222.74 178.94 C 219.10 179.08 215.46 179.07 211.83 179.03 C 210.91 173.66 206.02 170.16 201.00 168.99 C 195.35 167.22 189.05 168.19 183.94 171.07 C 180.55 173.00 177.59 176.84 178.53 180.94 C 179.26 184.62 182.95 186.49 186.12 187.75 C 196.11 191.41 207.57 191.94 216.22 198.70 C 223.20 204.08 224.46 214.75 219.97 222.09 C 216.38 228.31 209.81 232.16 203.03 233.98 C 203.02 237.99 203.03 241.99 203.02 245.99 C 197.67 246.00 192.33 246.00 186.98 245.99 C 186.97 241.99 186.98 237.99 186.97 233.99 C 177.10 231.63 167.81 223.75 167.26 213.05 C 170.90 212.92 174.53 212.93 178.17 212.98 C 179.08 218.32 183.94 221.79 188.93 222.99 C 194.80 224.83 201.38 223.78 206.59 220.61 C 209.74 218.63 212.37 214.90 211.46 211.04 C 210.73 207.37 207.07 205.52 203.91 204.26 C 193.91 200.60 182.45 200.04 173.77 193.31 C 166.63 187.80 165.50 176.77 170.33 169.41 C 173.95 163.44 180.39 159.82 186.97 158.02 C 186.98 154.01 186.97 150.01 186.98 146.01 Z" />
</g>
</svg>
