<?xml version="1.0" encoding="UTF-8" standalone="no"?>
<svg
   viewBox="0 0 43 43"
   version="1.1"
   id="svg14"
   sodipodi:docname="logo-pix-qr.svg"
   inkscape:version="1.1.2 (b8e25be833, 2022-02-05)"
   xmlns:inkscape="http://www.inkscape.org/namespaces/inkscape"
   xmlns:sodipodi="http://sodipodi.sourceforge.net/DTD/sodipodi-0.dtd"
   xmlns:xlink="http://www.w3.org/1999/xlink"
   xmlns="http://www.w3.org/2000/svg"
   xmlns:svg="http://www.w3.org/2000/svg">
  <sodipodi:namedview
     id="namedview16"
     pagecolor="#505050"
     bordercolor="#ffffff"
     borderopacity="1"
     inkscape:pageshadow="0"
     inkscape:pageopacity="0"
     inkscape:pagecheckerboard="1"
     showgrid="false"
     inkscape:zoom="8.7977239"
     inkscape:cx="23.130983"
     inkscape:cy="25.120134"
     inkscape:window-width="1366"
     inkscape:window-height="697"
     inkscape:window-x="-8"
     inkscape:window-y="-8"
     inkscape:window-maximized="1"
     inkscape:current-layer="svg14" />
  <defs
     id="defs8">
    <linearGradient
       id="a"
       x1="19.9"
       y1="0"
       x2="19.9"
       y2="40"
       gradientUnits="userSpaceOnUse">
      <stop
         stop-color="#5CC6F6"
         id="stop2" />
      <stop
         offset="1"
         stop-color="#007AFF"
         id="stop4" />
    </linearGradient>
    <linearGradient
       xlink:href="#a"
       id="b"
       gradientUnits="userSpaceOnUse"
       x1="19.9"
       y1="0"
       x2="19.9"
       y2="40"
       gradientTransform="translate(1.5 1.5)" />
  </defs>
  <path
     fill-rule="evenodd"
     clip-rule="evenodd"
     d="M21.4 1.5C5 1.5 1.5 5 1.5 21.5s3.5 20 20 20c16.3 0 19.9-3.5 19.9-20s-3.6-20-20-20z"
     fill="url('#a')"
     style="fill:#32bcad;stroke:#fff;stroke-width:3;stroke-miterlimit:4;stroke-dasharray:none;stroke-opacity:1;fill-opacity:1"
     id="path10" />
  <g
     id="g894"
     transform="translate(9.4975,9.4975)"
     style="fill:#ffffff">
    <g
       id="g892"
       style="fill:#ffffff">
      <path
         d="m 15.45,16.52 -3.01,-3.01 c -0.11,-0.11 -0.24,-0.13 -0.31,-0.13 -0.07,0 -0.2,0.02 -0.31,0.13 L 8.8,16.53 c -0.34,0.34 -0.87,0.89 -2.64,0.89 l 3.71,3.7 c 1.17,1.17 3.07,1.17 4.24,0 l 3.72,-3.71 c -0.91,0 -1.67,-0.18 -2.38,-0.89 z"
         id="path886"
         style="fill:#ffffff" />
      <path
         d="m 8.8,7.47 3.02,3.02 c 0.08,0.08 0.2,0.13 0.31,0.13 0.11,0 0.23,-0.05 0.31,-0.13 L 15.43,7.5 C 16.14,6.76 16.95,6.59 17.86,6.59 L 14.14,2.88 C 12.97,1.71 11.07,1.71 9.9,2.88 l -3.71,3.7 c 1.76,0 2.3,0.58 2.61,0.89 z"
         id="path888"
         style="fill:#ffffff" />
      <path
         d="M 21.11,9.85 18.86,7.59 H 17.6 c -0.54,0 -1.08,0.22 -1.45,0.61 l -3,3 c -0.28,0.28 -0.65,0.42 -1.02,0.42 -0.36,0 -0.74,-0.15 -1.02,-0.42 L 8.09,8.17 C 7.71,7.79 7.19,7.57 6.64,7.57 H 5.17 l -2.29,2.3 c -1.17,1.17 -1.17,3.07 0,4.24 l 2.29,2.3 h 1.48 c 0.54,0 1.06,-0.22 1.45,-0.6 l 3.02,-3.02 c 0.28,-0.28 0.65,-0.42 1.02,-0.42 0.37,0 0.74,0.14 1.02,0.42 l 3.01,3.01 c 0.38,0.38 0.9,0.6 1.45,0.6 h 1.26 l 2.25,-2.26 c 1.17,-1.18 1.17,-3.1 -0.02,-4.29 z"
         id="path890"
         style="fill:#ffffff" />
    </g>
  </g>
</svg>
