<svg xmlns="http://www.w3.org/2000/svg" width="32" height="32" viewBox="0 0 32 32" fill="none">
<rect x="5.71289" y="3.87891" width="19.9951" height="24.2424" fill="white"/>
<path fill-rule="evenodd" clip-rule="evenodd" d="M16 0C2.82353 0 0 2.82353 0 16C0 29.1765 2.82353 32 16 32C29.1765 32 32 29.1765 32 16C32 2.82353 29.1765 0 16 0ZM17.8118 7.84C18.7959 7.94418 19.7469 8.2553 20.6024 8.75294C21.9459 9.57883 22.8753 10.9788 22.8753 13.0141C22.8753 15.0494 21.9506 16.4894 20.6424 17.3835C19.7918 17.9442 18.8275 18.309 17.8188 18.4518V20.2659H15.3129V18.5459H13.5624V22.7647H14.7953V25.2659H9.83294V22.7647H11.0682V10.2659H9.83294V7.76471H15.32V6.19529H17.8188L17.8118 7.84ZM16.5624 16.0471H13.5624V10.2659H16.5624C17.5906 10.2659 18.5929 10.4541 19.2941 10.8847C19.9106 11.2635 20.3741 11.8635 20.3741 13.0141C20.3741 14.1647 19.9035 14.8682 19.2329 15.3176C18.4321 15.8142 17.5044 16.0676 16.5624 16.0471V16.0471Z" fill="#007AFF"/>
</svg>