<svg viewBox="0 0 497 495" xmlns="http://www.w3.org/2000/svg"><path fill="#fbfcfc" d="M238 94c13 0 27 2 40 1l-1 26c20 2 41 9 56 23 10 10 17 22 20 36 6 22 2 46-9 65-10 15-25 26-41 33l-26 7v28l-39-1v-26h-27v65h19v39h-77l1-39h18V158h-19v-39h85V94m-27 64v90h50c15-1 30-6 42-15 4-3 7-7 9-12 7-14 7-33-3-46-7-9-19-12-29-14-23-5-46-2-69-3Z"/><g fill="#2d9ffb"><path d="M201 1h85a692 692 0 0 1 108 15c21 6 41 17 56 33 19 18 29 44 36 69 6 28 9 57 10 86v88c-1 22-2 44-6 66-4 20-9 39-17 57-6 11-14 23-23 32-13 13-28 22-45 28-18 7-36 11-55 14-27 4-55 5-82 5-26 0-51 1-77-1s-51-5-76-11c-30-7-59-22-77-47-13-17-21-37-26-57-7-31-9-64-11-96-1-36 0-72 3-108 1-21 4-41 9-61 6-21 14-41 28-58 18-21 43-34 69-41 30-9 61-11 91-13m37 93v25h-85v39h19v193h-18l-1 39h77v-39h-19v-65h27v26l39 1v-28l26-7c16-7 31-18 41-33 11-19 15-43 9-65-3-14-10-26-20-36a95 95 0 0 0-56-23l1-26c-13 1-27-1-40-1Z"/><path d="M211 158c23 1 46-2 69 3 10 2 22 5 29 14 10 13 10 32 3 46-2 5-5 9-9 12-12 9-27 14-42 15h-50v-90Z"/></g></svg>