<?xml version="1.0" encoding="utf-8"?><!DOCTYPE svg PUBLIC "-//W3C//DTD SVG 1.1//EN" "http://www.w3.org/Graphics/SVG/1.1/DTD/svg11.dtd"><svg xmlns="http://www.w3.org/2000/svg" xmlns:xlink="http://www.w3.org/1999/xlink"><symbol viewBox="0 0 24 24" id="coin-stake" xmlns="http://www.w3.org/2000/svg"><path d="M0 0h24v24H0V0z" fill="none"/><path d="M15 4c-4.42 0-8 3.58-8 8s3.58 8 8 8 8-3.58 8-8-3.58-8-8-8zm0 14c-3.31 0-6-2.69-6-6s2.69-6 6-6 6 2.69 6 6-2.69 6-6 6zM3 12a5.99 5.99 0 014-5.65V4.26C3.55 5.15 1 8.27 1 12s2.55 6.85 6 7.74v-2.09A5.99 5.99 0 013 12z"/></symbol><symbol viewBox="0 0 24 24" id="discord" xmlns="http://www.w3.org/2000/svg"><path d="M22 24l-5.25-5 .63 2H4.5A2.5 2.5 0 012 18.5v-15A2.5 2.5 0 014.5 1h15A2.5 2.5 0 0122 3.5V24M12 6.8c-2.68 0-4.56 1.15-4.56 1.15 1.03-.92 2.83-1.45 2.83-1.45l-.17-.17c-1.69.03-3.22 1.2-3.22 1.2-1.72 3.59-1.61 6.69-1.61 6.69 1.4 1.81 3.48 1.68 3.48 1.68l.71-.9c-1.25-.27-2.04-1.38-2.04-1.38S9.3 14.9 12 14.9s4.58-1.28 4.58-1.28-.79 1.11-2.04 1.38l.71.9s2.08.13 3.48-1.68c0 0 .11-3.1-1.61-6.69 0 0-1.53-1.17-3.22-1.2l-.17.17s1.8.53 2.83 1.45c0 0-1.88-1.15-4.56-1.15m-2.07 3.79c.65 0 1.18.57 1.17 1.27 0 .69-.52 1.27-1.17 1.27-.64 0-1.16-.58-1.16-1.27 0-.7.51-1.27 1.16-1.27m4.17 0c.65 0 1.17.57 1.17 1.27 0 .69-.52 1.27-1.17 1.27-.64 0-1.16-.58-1.16-1.27 0-.7.51-1.27 1.16-1.27z"/></symbol><symbol viewBox="0 0 24 24" id="email" xmlns="http://www.w3.org/2000/svg"><path d="M22 6c0-1.1-.9-2-2-2H4c-1.1 0-2 .9-2 2v12c0 1.1.9 2 2 2h16c1.1 0 2-.9 2-2V6m-2 0l-8 5-8-5h16m0 12H4V8l8 5 8-5v10z"/></symbol><symbol viewBox="0 0 24 24" id="facebook" xmlns="http://www.w3.org/2000/svg"><path d="M12 2.04c-5.5 0-10 4.49-10 10.02 0 5 3.66 9.15 8.44 9.9v-7H7.9v-2.9h2.54V9.85c0-2.51 1.49-3.89 3.78-3.89 1.09 0 2.23.19 2.23.19v2.47h-1.26c-1.24 0-1.63.77-1.63 1.56v1.88h2.78l-.45 2.9h-2.33v7a10 10 0 008.44-9.9c0-5.53-4.5-10.02-10-10.02z"/></symbol><symbol viewBox="0 0 24 24" id="github" xmlns="http://www.w3.org/2000/svg"><path d="M12 2A10 10 0 002 12c0 4.42 2.87 8.17 6.84 9.5.5.08.66-.23.66-.5v-1.69c-2.77.6-3.36-1.34-3.36-1.34-.46-1.16-1.11-1.47-1.11-1.47-.91-.62.07-.6.07-.6 1 .07 1.53 1.03 1.53 1.03.87 1.52 2.34 1.07 2.91.83.09-.65.35-1.09.63-1.34-2.22-.25-4.55-1.11-4.55-4.92 0-1.11.38-2 1.03-2.71-.1-.25-.45-1.29.1-2.64 0 0 .84-.27 2.75 1.02.79-.22 1.65-.33 2.5-.33.85 0 1.71.11 2.5.33 1.91-1.29 2.75-1.02 2.75-1.02.55 1.35.2 2.39.1 2.64.65.71 1.03 1.6 1.03 2.71 0 3.82-2.34 4.66-4.57 4.91.36.31.69.92.69 1.85V21c0 .27.16.59.67.5C19.14 20.16 22 16.42 22 12A10 10 0 0012 2z"/></symbol><symbol viewBox="0 0 24 24" id="heart" xmlns="http://www.w3.org/2000/svg"><path d="M12 20.054C-5.558 10.476 7.14-1.432 12 6.588c4.86-8.02 17.56 3.888 0 13.466z"/></symbol><symbol viewBox="0 0 24 24" id="info" xmlns="http://www.w3.org/2000/svg"><path d="M0 0h24v24H0V0z" fill="none"/><path d="M11 7h2v2h-2zm0 4h2v6h-2zm1-9C6.48 2 2 6.48 2 12s4.48 10 10 10 10-4.48 10-10S17.52 2 12 2zm0 18c-4.41 0-8-3.59-8-8s3.59-8 8-8 8 3.59 8 8-3.59 8-8 8z"/></symbol><symbol viewBox="0 0 24 24" id="instagram" xmlns="http://www.w3.org/2000/svg"><path d="M7.8 2h8.4C19.4 2 22 4.6 22 7.8v8.4a5.8 5.8 0 01-5.8 5.8H7.8C4.6 22 2 19.4 2 16.2V7.8A5.8 5.8 0 017.8 2m-.2 2A3.6 3.6 0 004 7.6v8.8C4 18.39 5.61 20 7.6 20h8.8a3.6 3.6 0 003.6-3.6V7.6C20 5.61 18.39 4 16.4 4H7.6m9.65 1.5a1.25 1.25 0 011.25 1.25A1.25 1.25 0 0117.25 8 1.25 1.25 0 0116 6.75a1.25 1.25 0 011.25-1.25M12 7a5 5 0 015 5 5 5 0 01-5 5 5 5 0 01-5-5 5 5 0 015-5m0 2a3 3 0 00-3 3 3 3 0 003 3 3 3 0 003-3 3 3 0 00-3-3z"/></symbol><symbol viewBox="0 0 24 24" id="linkedin" xmlns="http://www.w3.org/2000/svg"><path d="M19 3a2 2 0 012 2v14a2 2 0 01-2 2H5a2 2 0 01-2-2V5a2 2 0 012-2h14m-.5 15.5v-5.3a3.26 3.26 0 00-3.26-3.26c-.85 0-1.84.52-2.32 1.3v-1.11h-2.79v8.37h2.79v-4.93c0-.77.62-1.4 1.39-1.4a1.4 1.4 0 011.4 1.4v4.93h2.79M6.88 8.56a1.68 1.68 0 001.68-1.68c0-.93-.75-1.69-1.68-1.69a1.69 1.69 0 00-1.69 1.69c0 .93.76 1.68 1.69 1.68m1.39 9.94v-8.37H5.5v8.37h2.77z"/></symbol><symbol class="jsvg-icon" style="width:1em;height:1em;vertical-align:middle" viewBox="0 0 1024 1024" fill="currentColor" overflow="hidden" id="medium" xmlns="http://www.w3.org/2000/svg"><path d="M834.7 279.8l61.3-58.9V208H683.7L532.4 586.4 360.3 208H137.7v12.9l71.6 86.6c7 6.4 10.6 15.8 9.7 25.2V673c2.2 12.3-1.7 24.8-10.3 33.7L128 805v12.7h228.6v-12.9l-80.6-98c-8.7-8.9-12.9-21.3-11.1-33.7V378.7l200.7 439.2h23.3l172.6-439.2v349.9c0 9.2 0 11.1-6 17.2l-62.1 60.3V819h301.2v-12.9l-59.9-58.9c-5.2-4-7.9-10.7-6.8-17.2V297c-1.1-6.5 1.6-13.2 6.8-17.2z"/></symbol><symbol viewBox="0 0 24 24" id="portfolio" xmlns="http://www.w3.org/2000/svg"><path d="M0 0h24v24H0V0z" fill="none"/><path d="M20 7h-4V5l-2-2h-4L8 5v2H4c-1.1 0-2 .9-2 2v5c0 .75.4 1.38 1 1.73V19c0 1.11.89 2 2 2h14c1.11 0 2-.89 2-2v-3.28c.59-.35 1-.99 1-1.72V9c0-1.1-.9-2-2-2zM10 5h4v2h-4V5zM4 9h16v5h-5v-3H9v3H4V9zm9 6h-2v-2h2v2zm6 4H5v-3h4v1h6v-1h4v3z"/></symbol><symbol viewBox="0 0 24 24" id="quest" xmlns="http://www.w3.org/2000/svg"><path fill="none" d="M0 0h24v24H0z"/><path d="M9 4v1.38c-.83-.33-1.72-.5-2.61-.5-1.79 0-3.58.68-4.95 2.05l3.33 3.33h1.11v1.11c.86.86 1.98 1.31 3.11 1.36V15H6v3c0 1.1.9 2 2 2h10c1.66 0 3-1.34 3-3V4H9zm-1.11 6.41V8.26H5.61L4.57 7.22a5.07 5.07 0 011.82-.34c1.34 0 2.59.52 3.54 1.46l1.41 1.41-.2.2a2.7 2.7 0 01-1.92.8c-.47 0-.93-.12-1.33-.34zM19 17c0 .55-.45 1-1 1s-1-.45-1-1v-2h-6v-2.59c.57-.23 1.1-.57 1.56-1.03l.2-.2L15.59 14H17v-1.41l-6-5.97V6h8v11z"/></symbol><symbol viewBox="0 0 24 24" id="reddit" xmlns="http://www.w3.org/2000/svg"><path d="M14.5 15.41c.08.09.08.28 0 .39-.73.7-2.09.76-2.5.76-.39 0-1.75-.06-2.46-.76-.1-.11-.1-.3 0-.39.11-.1.28-.1.38 0 .46.46 1.41.59 2.08.59.69 0 1.66-.13 2.1-.59.11-.1.28-.1.4 0m-3.75-2.37c0-.57-.47-1.04-1.04-1.04-.57 0-1.04.47-1.04 1.04 0 .57.47 1.05 1.04 1.04.57 0 1.04-.47 1.04-1.04M14.29 12c-.57 0-1.04.5-1.04 1.05s.47 1.04 1.04 1.04c.57 0 1.04-.48 1.04-1.04 0-.55-.47-1.05-1.04-1.05M22 12c0 5.5-4.5 10-10 10S2 17.5 2 12 6.5 2 12 2s10 4.5 10 10m-3.33 0c0-.81-.67-1.46-1.45-1.46-.4 0-.76.16-1.02.41-1-.72-2.37-1.18-3.9-1.24l.67-3.13 2.17.47c.02.55.48.99 1.04.99.57 0 1.04-.47 1.04-1.04 0-.57-.47-1.04-1.04-1.04-.41 0-.77.24-.93.59l-2.43-.52c-.07-.03-.14 0-.19.04-.06.04-.09.1-.1.17l-.74 3.48c-1.55.05-2.95.51-3.97 1.24-.26-.25-.62-.4-1.01-.4-.81 0-1.46.65-1.46 1.44 0 .61.36 1.11.86 1.34-.02.16-.03.28-.03.44 0 2.22 2.61 4.07 5.82 4.07 3.23 0 5.85-1.82 5.85-4.07 0-.14-.01-.28-.04-.44.5-.23.86-.74.86-1.34z"/></symbol><symbol viewBox="0 0 256 256" id="referral" xmlns="http://www.w3.org/2000/svg"><path d="M134.66 45.66c10.43-10.65 25.38-16.67 40.27-16.14 13.45.32 26.67 5.89 36.25 15.34 11.29 11.47 16.91 28.17 14.95 44.13-1.34 11.93-6.86 23.3-15.26 31.85-5.18 5.25-10.44 10.43-15.64 15.67.14-8.7-1.29-17.4-4.28-25.58 5.33-4.97 10.4-10.62 12.49-17.77 3.76-11.33 1-24.61-7.18-33.34-12.36-11.92-33.87-11.81-46.12.23-12.56 12.82-25.03 25.73-37.56 38.58-6.1 6.05-9.49 14.69-9.07 23.28.29 7.69 3.69 15.09 9.07 20.57 3.89 4.12 3.25 11.31-1.08 14.89-3.76 3.38-10.12 3.53-13.83-.01-9.82-9.39-15.61-22.83-15.65-36.42-.17-13.17 5.04-26.32 14.21-35.78 12.82-13.16 25.6-26.36 38.43-39.5z"/><path d="M142.69 100.66c3.13-4.88 10.54-6.2 15.07-2.53 13.04 11.82 18.7 30.73 15.13 47.87-17.34 9.19-29.82 26.54-33.24 45.84-5.66 6.25-11.91 11.98-17.79 18.04-8.22 8.43-19.13 14.23-30.79 15.96-16.8 2.75-34.75-3.04-46.71-15.18-9.8-10.22-15.24-24.44-14.85-38.59.24-13.22 5.56-26.27 14.66-35.89 5.44-5.65 11.09-11.1 16.6-16.69-.12 9.05 1.45 18.06 4.3 26.64-13.92 8.89-18.08 28.86-10.24 43.09 6.48 13.15 23.35 18.52 36.94 14.64 5.95-1.64 11.44-4.93 15.65-9.44 12.43-12.89 25.02-25.62 37.38-38.56 10.36-11.25 10.19-30.26-.45-41.26-3.86-3.46-4.75-9.7-1.66-13.94zM186.98 146.01c5.35-.01 10.69-.02 16.04 0 .01 4 0 8 .01 12.01 9.88 2.33 19.14 10.24 19.71 20.92-3.64.14-7.28.13-10.91.09-.92-5.37-5.81-8.87-10.83-10.04-5.65-1.77-11.95-.8-17.06 2.08-3.39 1.93-6.35 5.77-5.41 9.87.73 3.68 4.42 5.55 7.59 6.81 9.99 3.66 21.45 4.19 30.1 10.95 6.98 5.38 8.24 16.05 3.75 23.39-3.59 6.22-10.16 10.07-16.94 11.89-.01 4.01 0 8.01-.01 12.01-5.35.01-10.69.01-16.04 0-.01-4 0-8-.01-12-9.87-2.36-19.16-10.24-19.71-20.94 3.64-.13 7.27-.12 10.91-.07.91 5.34 5.77 8.81 10.76 10.01 5.87 1.84 12.45.79 17.66-2.38 3.15-1.98 5.78-5.71 4.87-9.57-.73-3.67-4.39-5.52-7.55-6.78-10-3.66-21.46-4.22-30.14-10.95-7.14-5.51-8.27-16.54-3.44-23.9 3.62-5.97 10.06-9.59 16.64-11.39.01-4.01 0-8.01.01-12.01z"/></symbol><symbol viewBox="0 0 24 24" id="savings" xmlns="http://www.w3.org/2000/svg"><path fill="none" d="M0 0h24v24H0z"/><path d="M15 10c0-.55.45-1 1-1s1 .45 1 1-.45 1-1 1-1-.45-1-1zM8 9h5V7H8v2zm14-1.5v6.97l-2.82.94L17.5 21H12v-2h-2v2H4.5S2 12.54 2 9.5 4.46 4 7.5 4h5c.91-1.21 2.36-2 4-2a1.498 1.498 0 011.38 2.08c-.14.34-.26.73-.32 1.15l2.27 2.27H22zm-2 2h-1L15.5 6c0-.65.09-1.29.26-1.91-.97.25-1.76.97-2.09 1.91H7.5C5.57 6 4 7.57 4 9.5c0 1.88 1.22 6.65 2.01 9.5H8v-2h6v2h2.01l1.55-5.15 2.44-.82V9.5z"/></symbol><symbol class="psvg-icon" style="width:1em;height:1em;vertical-align:middle" viewBox="0 0 1024 1024" fill="currentColor" overflow="hidden" id="telegram" xmlns="http://www.w3.org/2000/svg"><path d="M512 16C238 16 16 238 16 512s222 496 496 496 496-222 496-496S786 16 512 16zm243.6 339.8l-81.4 383.6c-6 27.2-22.2 33.8-44.8 21l-124-91.4-59.8 57.6c-6.6 6.6-12.2 12.2-25 12.2l8.8-126.2L659.2 405c10-8.8-2.2-13.8-15.4-5l-284 178.8-122.4-38.2c-26.6-8.4-27.2-26.6 5.6-39.4l478.2-184.4c22.2-8 41.6 5.4 34.4 39z"/></symbol><symbol viewBox="0 0 24 24" id="token" xmlns="http://www.w3.org/2000/svg"><path fill="none" d="M0 0h24v24H0z"/><path d="M9 4c-4.42 0-8 3.58-8 8s3.58 8 8 8 8-3.58 8-8-3.58-8-8-8zm0 14c-3.31 0-6-2.69-6-6s2.69-6 6-6 6 2.69 6 6-2.69 6-6 6zm3-7.5h-2v5H8v-5H6V9h6v1.5zm8.25-6.75L23 5l-2.75 1.25L19 9l-1.25-2.75L15 5l2.75-1.25L19 1l1.25 2.75zm0 14L23 19l-2.75 1.25L19 23l-1.25-2.75L15 19l2.75-1.25L19 15l1.25 2.75z"/></symbol><symbol viewBox="0 0 24 24" id="twitter" xmlns="http://www.w3.org/2000/svg"><path d="M22.46 6c-.77.35-1.6.58-2.46.69.88-.53 1.56-1.37 1.88-2.38-.83.5-1.75.85-2.72 1.05C18.37 4.5 17.26 4 16 4c-2.35 0-4.27 1.92-4.27 4.29 0 .34.04.67.11.98C8.28 9.09 5.11 7.38 3 4.79c-.37.63-.58 1.37-.58 2.15 0 1.49.75 2.81 1.91 3.56-.71 0-1.37-.2-1.95-.5v.03c0 2.08 1.48 3.82 3.44 4.21a4.22 4.22 0 01-1.93.07 4.28 4.28 0 004 2.98 8.521 8.521 0 01-5.33 1.84c-.34 0-.68-.02-1.02-.06C3.44 20.29 5.7 21 8.12 21 16 21 20.33 14.46 20.33 8.79c0-.19 0-.37-.01-.56.84-.6 1.56-1.36 2.14-2.23z"/></symbol><symbol viewBox="0 0 1000 1000" id="website" xmlns="http://www.w3.org/2000/svg"><path d="M480 0h40a500 500 0 01480 492v16a503 503 0 01-361 473c-38 11-79 17-119 19h-39A499 499 0 010 513v-26A500 500 0 01480 0m2 260v42H341l-1 1v64l30-1v316h-30v58h152v-58h-48V577h38v48h67v-48c28-3 54-13 77-29l26-22c13-15 21-34 25-53 2-14 4-28 3-42-1-28-10-56-28-78-11-11-24-20-38-27-20-9-41-16-63-20v-46h-69z"/><path d="M439 366h76c18 0 37 2 54 9 14 5 26 15 34 28 7 14 9 31 8 46-3 17-11 33-24 44-15 12-33 18-51 22-10 2-19 2-29 2h-66l-2-151z"/><path fill="transparent" d="M482 260h69v46c22 4 43 11 63 20 14 7 27 16 38 27 18 22 27 50 28 78 1 14-1 28-3 42-4 19-12 38-25 53l-26 22c-23 16-49 26-77 29v48h-67v-48h-38v105h48v58H340v-58h30V366l-30 1v-64l1-1h141v-42m-43 106l2 151h66c10 0 19 0 29-2 18-4 36-10 51-22 13-11 21-27 24-44 1-15-1-32-8-46-8-13-20-23-34-28-17-7-36-9-54-9h-76z"/></symbol><symbol viewBox="0 0 24 24" id="youtube" xmlns="http://www.w3.org/2000/svg"><path d="M10 15l5.19-3L10 9v6m11.56-7.83c.13.47.22 1.1.28 1.9.07.8.1 1.49.1 2.09L22 12c0 2.19-.16 3.8-.44 4.83-.25.9-.83 1.48-1.73 1.73-.47.13-1.33.22-2.65.28-1.3.07-2.49.1-3.59.1L12 19c-4.19 0-6.8-.16-7.83-.44-.9-.25-1.48-.83-1.73-1.73-.13-.47-.22-1.1-.28-1.9-.07-.8-.1-1.49-.1-2.09L2 12c0-2.19.16-3.8.44-4.83.25-.9.83-1.48 1.73-1.73.47-.13 1.33-.22 2.65-.28 1.3-.07 2.49-.1 3.59-.1L12 5c4.19 0 6.8.16 7.83.44.9.25 1.48.83 1.73 1.73z"/></symbol></svg>