<svg xmlns="http://www.w3.org/2000/svg" xmlns:xlink="http://www.w3.org/1999/xlink" viewBox="0 0 48 48">
  <defs>
    <path id="a" d="M500 0a500 500 0 1 1-.1 1000.1A500 500 0 0 1 500 0Z"/>
  </defs>
  <g transform="matrix(.048 0 0 .048 0 0)">
    <use xlink:href="#a" width="100%" height="100%" fill="#111" fill-rule="evenodd" clip-rule="evenodd" overflow="visible"/>
    <path fill="#fff" d="M647.5 292.6 545.4 444.2c-7.1 10.3 6.5 22.8 16.3 14.1l100.5-87.4c2.7-2.2 6.5-.5 6.5 3.3v273.2c0 3.8-4.9 5.4-7.1 2.7l-304.2-364a50.4 50.4 0 0 0-39.6-18.5h-10.9a52 52 0 0 0-51.6 52.1v384.5a52.1 52.1 0 0 0 96.6 27.1L454.1 580c7.1-10.3-6.5-22.8-16.3-14.1l-100.5 86.9c-2.7 2.2-6.5.5-6.5-3.3V376.8c0-3.8 4.9-5.4 7.1-2.7L642 738a51.2 51.2 0 0 0 39.6 18.5h10.9a52.1 52.1 0 0 0 52.1-52.1V319.8a52.5 52.5 0 0 0-97.1-27.2z"/>
  </g>
</svg>