<svg viewBox="0 0 100 100" fill="none" xmlns="http://www.w3.org/2000/svg"><circle cx="50" cy="50" r="50" fill="url('#a')"/><g filter="url('#b')"><path d="M55 57.7v4.9h-6.8v-4.9h-3.8v10.5h4.8V74H34v-5.8h3V36.6h-3v-6.4h14.2V26h7v4.6s6 1 9.3 4c3.8 3.7 3.8 9 3.2 12.7a11 11 0 0 1-4.3 6.8 17 17 0 0 1-8.5 3.6zm-10.8-6h6.7c1.2 0 2.4 0 3.6-.4 8.5-2.2 7-9.6 5.5-11.4-1.8-2.5-4.3-3-7.1-3.3-2.3-.2-9 0-9 0l.3 15.1z" fill="url('#c')"/></g><defs><linearGradient id="a" x1="3.2" y1="100" x2="3.2" y2="0" gradientUnits="userSpaceOnUse"><stop stop-color="#4F80F4"/><stop offset="1" stop-color="#0EE6E7"/></linearGradient><linearGradient id="c" x1="48.5" y1="100" x2="48.5" y2="-3" gradientUnits="userSpaceOnUse"><stop stop-color="#E1EAFF"/><stop offset="1" stop-color="#fff"/></linearGradient><filter id="b" x="31" y="24" width="40" height="54" filterUnits="userSpaceOnUse" color-interpolation-filters="sRGB"><feFlood flood-opacity="0" result="BackgroundImageFix"/><feColorMatrix in="SourceAlpha" values="0 0 0 0 0 0 0 0 0 0 0 0 0 0 0 0 0 0 127 0"/><feOffset dy="1"/><feGaussianBlur stdDeviation="1.5"/><feColorMatrix values="0 0 0 0 0 0 0 0 0 0 0 0 0 0 0 0 0 0 0.2 0"/><feBlend in2="BackgroundImageFix" result="effect1_dropShadow"/><feBlend in="SourceGraphic" in2="effect1_dropShadow" result="shape"/></filter></defs></svg>