<svg xmlns="http://www.w3.org/2000/svg" viewBox="0 0 16.3 23.7"><defs><linearGradient id="a" x1="19.9" y1="0" x2="19.9" y2="40" gradientUnits="userSpaceOnUse"><stop stop-color="#5CC6F6"/><stop offset="1" stop-color="#007AFF"/></linearGradient></defs><path fill-rule="evenodd" clip-rule="evenodd" d="M10 2a9 9 0 0 1 3.5 1.1 6 6 0 0 1 2.8 5.4c0 2.5-1.2 4.3-2.8 5.4-1 .7-2.3 1.2-3.5 1.4v2.2H6.9v-2.1H4.7v5.3h1.5v3H0v-3h1.6V5H0V2h6.9V0h3v2ZM8.3 12.3H4.6V5h3.7c1.3 0 2.6.3 3.4.8.8.5 1.4 1.2 1.4 2.7 0 1.4-.6 2.3-1.4 2.8a6 6 0 0 1-3.4 1z" fill="url(#a)" style="fill:#fff;fill-opacity:1"/></svg>