<svg viewBox="0 0 1000 1000" xmlns="http://www.w3.org/2000/svg"><g fill="#0c7ef9"><path d="M480 0h40a500 500 0 0 1 480 492v16a503 503 0 0 1-361 473c-38 11-79 17-119 19h-39A499 499 0 0 1 0 513v-26A500 500 0 0 1 480 0m2 260v42H341l-1 1v64l30-1v316h-30v58h152v-58h-48V577h38v48h67v-48c28-3 54-13 77-29l26-22c13-15 21-34 25-53 2-14 4-28 3-42-1-28-10-56-28-78-11-11-24-20-38-27-20-9-41-16-63-20v-46h-69Z"/><path d="M439 366h76c18 0 37 2 54 9 14 5 26 15 34 28 7 14 9 31 8 46-3 17-11 33-24 44-15 12-33 18-51 22-10 2-19 2-29 2h-66l-2-151Z"/></g><path fill="#fdfcff" d="M482 260h69v46c22 4 43 11 63 20 14 7 27 16 38 27 18 22 27 50 28 78 1 14-1 28-3 42-4 19-12 38-25 53l-26 22c-23 16-49 26-77 29v48h-67v-48h-38v105h48v58H340v-58h30V366l-30 1v-64l1-1h141v-42m-43 106 2 151h66c10 0 19 0 29-2 18-4 36-10 51-22 13-11 21-27 24-44 1-15-1-32-8-46-8-13-20-23-34-28-17-7-36-9-54-9h-76Z"/></svg>