<svg width="32" height="32" viewBox="0 0 32 32" fill="none" xmlns="http://www.w3.org/2000/svg">
<path d="M32 16C32 24.8366 24.8366 32 16 32C7.16344 32 0 24.8366 0 16C0 7.16344 7.16344 0 16 0C24.8366 0 32 7.16344 32 16Z" fill="black"/>
<path d="M23.9176 20.2559L21.2763 23.0461C21.2189 23.1067 21.1494 23.1551 21.0722 23.1881C20.995 23.2211 20.9118 23.2381 20.8276 23.2381H8.30663C8.24689 23.2381 8.18845 23.2209 8.13849 23.1886C8.08853 23.1564 8.04923 23.1104 8.02541 23.0564C8.0016 23.0025 7.99431 22.9428 8.00444 22.8848C8.01457 22.8268 8.04168 22.773 8.08244 22.73L10.7257 19.9398C10.783 19.8794 10.8522 19.8311 10.9292 19.7981C11.0061 19.7651 11.0891 19.748 11.1731 19.7478H23.6934C23.7531 19.7478 23.8116 19.765 23.8615 19.7973C23.9114 19.8296 23.9507 19.8755 23.9747 19.9295C23.9984 19.9835 24.0057 20.0431 23.9956 20.1011C23.9854 20.1591 23.9583 20.2129 23.9176 20.2559ZM21.2763 14.6373C21.2189 14.5767 21.1494 14.5284 21.0722 14.4953C20.995 14.4623 20.9118 14.4453 20.8276 14.4454H8.30663C8.24689 14.4454 8.18845 14.4625 8.13849 14.4948C8.08853 14.5271 8.04923 14.573 8.02541 14.627C8.0016 14.681 7.99431 14.7406 8.00444 14.7986C8.01457 14.8566 8.04168 14.9104 8.08244 14.9535L10.7257 17.7436C10.783 17.8041 10.8522 17.8523 10.9292 17.8853C11.0061 17.9183 11.0891 17.9355 11.1731 17.9356H23.6934C23.7531 17.9356 23.8116 17.9184 23.8615 17.8861C23.9114 17.8539 23.9507 17.8079 23.9747 17.754C23.9984 17.7 24.0057 17.6403 23.9956 17.5823C23.9854 17.5244 23.9583 17.4705 23.9176 17.4275L21.2763 14.6373ZM8.30663 12.6331H20.8276C20.9118 12.6331 20.995 12.6161 21.0722 12.5831C21.1494 12.5501 21.2189 12.5018 21.2763 12.4411L23.9176 9.65096C23.9583 9.60793 23.9854 9.55411 23.9956 9.49612C24.0057 9.43812 23.9984 9.37848 23.9747 9.32451C23.9507 9.27054 23.9114 9.22459 23.8615 9.19232C23.8116 9.16005 23.7531 9.14286 23.6934 9.14286H11.1731C11.0891 9.143 11.0061 9.16011 10.9292 9.19313C10.8522 9.22615 10.783 9.27437 10.7257 9.33482L8.08312 12.125C8.0424 12.168 8.01531 12.2218 8.00515 12.2797C7.995 12.3376 8.00223 12.3972 8.02596 12.4512C8.04969 12.5051 8.08888 12.551 8.13874 12.5834C8.1886 12.6157 8.24695 12.633 8.30663 12.6331Z" fill="url(#paint0_linear_902_178)"/>
<defs>
<linearGradient id="paint0_linear_902_178" x1="9.35059" y1="23.5737" x2="22.2592" y2="8.80036" gradientUnits="userSpaceOnUse">
<stop offset="0.08" stop-color="#9945FF"/>
<stop offset="0.3" stop-color="#8752F3"/>
<stop offset="0.5" stop-color="#5497D5"/>
<stop offset="0.6" stop-color="#43B4CA"/>
<stop offset="0.72" stop-color="#28E0B9"/>
<stop offset="0.97" stop-color="#19FB9B"/>
</linearGradient>
</defs>
</svg>
